<svg xmlns="http://www.w3.org/2000/svg" viewBox="0 0 1920 720"><title>6</title><g id="Layer_1" data-name="Layer 1"><rect width="1920" height="720" style="fill:#37003c"/></g><g id="Layer_2" data-name="Layer 2"><path id="path56" d="M1709.18,336.26a156.65,156.65,0,0,1-22.32,15.42l.14,31.37c8.63,9.4,17.15,17.19,23.53,31.38,12.1-21.25,9.77-52.49-1.35-78.17M1699.36,439a59.3,59.3,0,0,0-13-25l-23.94.57s-32.28,27.06-52,27.7c0,0,10.84,19.68,16.34,30,10.82-2.32,29.88-10.65,37.56-19.37a109.88,109.88,0,0,1,4.12,34.8c10.77-6.08,25.62-22.61,30.86-48.65M1668.5,382.3l0-31.26a108.15,108.15,0,0,1-29.58-16c-30.67,4.52-67.82,34.62-67.82,34.62s12.55,23.23,26.28,48.29c24.13,3.3,59.7-26.45,71.17-35.62m81.8,130.18-19.73-21.31c-5.63,57.62-34.56,106.54-87.69,140.67l-8.13-31.08c-45.1,31.78-122.51,52.4-189,15.71,8.26-41.1,15.6-82.74-.14-132.59-36.81,55.62-69.4,77.42-69.4,77.42-24.88-40.76-22.64-122.51-15.22-146.58l-41.4,12.51c0-27.47,20.27-85.75,49.64-118.49l-25.85-4h0a239.43,239.43,0,0,1,75.89-87.91l0,0c-9.64,14.85-9.78,51.49,18.45,65.43-12-20.5-13.43-45.84-.9-59s33.58-8.7,47,1.57c-4-11.45-15.73-25.84-33.3-26.82h0a246.32,246.32,0,0,1,110.73-26c7.45,0,14.88.32,22.14,1h0c11.59,4.54,28.6,20.47,36.53,30.4,0,0,.56-11.7-6.09-25.82,43.17,10.26,63.77,27.4,72.4,35.67,1.77,18.21,7.35,29.13,14.73,46.43-14-15.28-49.13-39.94-65.91-45.84,0,0-1.37,15.78-7.14,23.36-33.42-23.52-49.83-29.45-49.83-29.45-36.68,5.14-60.28,18.94-73.1,29.79l11.17,9.29c-22.11,6.63-36.47,25.15-36.47,25.15.16.34,19.76,3.07,19.76,3.07s-2,22.45,26.81,36.53c24.69,12.05,60.19-2.91,93.61,10.17-22-24.75-37.17-35.8-37.17-35.8a89.4,89.4,0,0,0-14.87-1.73c-7.68,0-19.13,1.52-31.68-3.25-6-2.29-13-6.33-18.5-9.69,0,0,15.43-15.46,38-18.87,0,0,20.34,5.59,36.45,17.21,10.7-10.17,21.87-9.85,21.87-9.85s-11.07,10.08-7.72,22.29c16.08,14,33.53,34,33.53,34,17.78-9.49,56.44-7.31,64.38,1.68-10.06-12.73-24.56-23.36-35.77-32.44-1.38-4.77-13.62-21.39-15.69-22.93a66.6,66.6,0,0,1,22,12.6c3-4.16,8.56-8.38,16.17-10.24,7.82,6.4,9.22,16.23,9,17.87a24.12,24.12,0,0,1-7,5.79l18.85,19.91,1.88-14.28c43.43,60.5,67.1,130.52,36.66,218.54m-343-382.91A197.73,197.73,0,0,1,1451.4,157c-1.32-6.31-6.26-36.69-9.1-55.56,14.59,9.88,48.46,32.81,59.6,40.26,4.54-13.65,20.28-58.22,20.28-58.22s28.43,44.91,33.3,52.2c5.93-6.06,39.91-43,48.71-52.29,1.47,21.23,3.47,51.59,4,56.15a186.4,186.4,0,0,1,36.51-36.44c-9.44,18.16-14,43.23-16,63.37a256.63,256.63,0,0,0-67.42-9A253.45,253.45,0,0,0,1438,189.21c-6.61-19.46-17-43.66-30.69-59.64" style="fill:#fff"/></g></svg>